<svg width="29" height="27" viewBox="0 0 29 27" fill="none" xmlns="http://www.w3.org/2000/svg">
<mask id="path-1-outside-1" maskUnits="userSpaceOnUse" x="-0.136257" y="0.0187073" width="29" height="27" fill="black">
<rect fill="white" x="-0.136257" y="0.0187073" width="29" height="27"/>
<path d="M25.5064 11.8229C24.6129 8.34521 22.1078 5.45427 18.7275 4.10332C18.1436 2.2799 16.4268 1.01871 14.5001 1.01871C12.5241 1.01871 10.8462 2.31692 10.2729 4.10498C8.23707 4.92038 6.49371 6.29594 5.21824 8.098C4.41247 9.23652 3.83155 10.4951 3.49139 11.823C2.02426 11.9326 0.863743 13.1605 0.863743 14.6551C0.863743 16.1505 2.02543 17.379 3.49373 17.4874C4.75546 22.3874 9.21158 26.0187 14.5001 26.0187C19.7884 26.0187 24.2445 22.3874 25.5062 17.4874C26.9745 17.379 28.1363 16.1505 28.1363 14.655C28.1363 13.1597 26.9746 11.9313 25.5064 11.8229ZM2.00019 14.655C2.00019 13.8709 2.53248 13.2089 3.25456 13.0109C3.20577 13.3491 3.17179 13.6905 3.15336 14.0346C3.15304 14.0394 3.15288 14.044 3.15261 14.0488C3.14931 14.1115 3.14638 14.1742 3.14414 14.237C3.14323 14.2608 3.14276 14.2846 3.14212 14.3084C3.14073 14.3535 3.13929 14.3985 3.13844 14.4436C3.13722 14.5141 3.13647 14.5845 3.13647 14.655C3.13647 14.741 3.1378 14.827 3.13983 14.9131C3.14041 14.94 3.14116 14.9669 3.14201 14.9937C3.14382 15.0563 3.14627 15.1189 3.14915 15.1815C3.15032 15.208 3.15138 15.2346 3.15272 15.2611C3.15687 15.3392 3.16188 15.4172 3.16758 15.4952C3.17029 15.5318 3.17349 15.5683 3.17647 15.6048C3.18036 15.6511 3.18441 15.6973 3.18883 15.7435C3.19272 15.7842 3.19671 15.825 3.20103 15.8655C3.20604 15.913 3.21174 15.9605 3.21733 16.0079C3.22473 16.07 3.23267 16.1319 3.24103 16.1937C3.24583 16.229 3.25025 16.2644 3.25536 16.2995C2.53285 16.1018 2.00019 15.4394 2.00019 14.655ZM14.5001 2.15515C15.6254 2.15515 16.6547 2.73309 17.2554 3.63772C17.2441 3.63761 17.2328 3.63756 17.2214 3.63756C17.2141 3.63756 17.207 3.63809 17.1996 3.63815C17.1968 3.63825 17.1939 3.6382 17.191 3.63836C15.4219 3.65482 13.9877 5.09845 13.9877 6.87133C13.9877 7.56123 14.2045 8.21716 14.5939 8.75835C14.5626 8.7592 14.5313 8.75968 14.5001 8.75968C12.6792 8.75968 11.1979 7.27834 11.1979 5.45752C11.1978 3.63655 12.6792 2.15515 14.5001 2.15515ZM24.7235 14.9242C24.7232 14.9381 24.7224 14.9518 24.722 14.9657C24.7196 15.0418 24.7169 15.118 24.7129 15.1941C24.7122 15.2077 24.7111 15.2212 24.7103 15.2348C24.706 15.3108 24.7012 15.3869 24.6952 15.4629C24.6941 15.4782 24.6924 15.4934 24.6911 15.5088C24.6851 15.5822 24.6784 15.6555 24.6708 15.7288C24.6687 15.7492 24.666 15.7695 24.6638 15.7898C24.6563 15.8569 24.6486 15.9239 24.6398 15.9909C24.6362 16.0189 24.632 16.0468 24.6281 16.0747C24.6201 16.1326 24.6119 16.1904 24.6028 16.2481C24.5968 16.2857 24.5905 16.323 24.5841 16.3604C24.5763 16.4071 24.5685 16.4538 24.5599 16.5003C24.5513 16.5477 24.5421 16.5948 24.5328 16.6418C24.5258 16.6771 24.5189 16.7124 24.5116 16.7476C23.5432 21.3866 19.4222 24.8823 14.4999 24.8823C9.57406 24.8823 5.45059 21.3817 4.48614 16.7376C4.4774 16.6955 4.46936 16.6532 4.46121 16.6109C4.45333 16.5705 4.44528 16.5301 4.43793 16.4896C4.42749 16.4322 4.41796 16.3745 4.40848 16.3168C4.40416 16.2904 4.39942 16.2639 4.39532 16.2374C4.38403 16.1644 4.37369 16.0914 4.36389 16.0181C4.36224 16.0057 4.36022 15.9933 4.35867 15.9809C4.34749 15.8947 4.33726 15.8082 4.32826 15.7217C4.32826 15.7213 4.32815 15.7208 4.32815 15.7205C4.29134 15.3668 4.27275 15.0109 4.27275 14.6552C4.27275 14.5749 4.27409 14.4946 4.276 14.4143C4.2767 14.3879 4.27749 14.3616 4.27835 14.3353C4.28 14.2813 4.28223 14.2273 4.28479 14.1733C4.28623 14.1418 4.28761 14.1104 4.28937 14.079C4.29209 14.0312 4.2955 13.9833 4.29885 13.9355C4.30477 13.853 4.31143 13.7706 4.31926 13.6884C4.32016 13.679 4.32091 13.6695 4.32181 13.6602C4.67103 10.1238 6.86119 6.98553 10.0619 5.43962C10.0619 5.44564 10.0615 5.45156 10.0615 5.45758C10.0615 5.86432 10.1175 6.25796 10.2205 6.63242C9.20061 7.17548 8.30504 7.89905 7.55435 8.78866C7.35194 9.02852 7.38235 9.387 7.62221 9.58931C7.72885 9.67933 7.85893 9.72322 7.98837 9.72322C8.14998 9.72322 8.31052 9.65461 8.42286 9.52145C9.057 8.76996 9.80918 8.15409 10.6633 7.68492C11.4331 9.00577 12.8641 9.89612 14.5001 9.89612C15.0017 9.89612 15.4946 9.81271 15.9649 9.64827C16.1697 9.57663 16.3159 9.39462 16.3415 9.1791C16.3672 8.96364 16.2679 8.75233 16.0856 8.63466C15.4836 8.24576 15.1241 7.58664 15.1241 6.87143C15.1241 5.7384 16.0274 4.813 17.1516 4.77587C20.9258 5.78564 23.7327 8.83734 24.5103 12.5567C24.5231 12.6183 24.5356 12.6799 24.5473 12.7417C24.5534 12.774 24.559 12.8065 24.5649 12.8388C24.5739 12.8894 24.5828 12.94 24.5911 12.9908C24.5962 13.0211 24.6009 13.0515 24.6056 13.082C24.6144 13.139 24.6228 13.1962 24.6306 13.2534C24.6339 13.2772 24.6373 13.301 24.6405 13.3248C24.6621 13.4909 24.6797 13.6577 24.6933 13.8247C24.6949 13.8438 24.6961 13.8631 24.6975 13.8823C24.7024 13.9466 24.7066 14.0109 24.7103 14.0753C24.7117 14.1002 24.713 14.1253 24.7142 14.1504C24.7173 14.2116 24.7196 14.2729 24.7215 14.3342C24.7223 14.3579 24.7232 14.3816 24.7238 14.4053C24.7259 14.4886 24.7271 14.5719 24.7271 14.6551C24.7271 14.7448 24.7259 14.8346 24.7235 14.9242ZM25.7446 16.2995C25.7509 16.2566 25.7565 16.2134 25.7623 16.1703C25.7683 16.1249 25.7742 16.0793 25.7798 16.0336C25.7868 15.9762 25.7934 15.9188 25.7996 15.8614C25.8035 15.8238 25.8072 15.7861 25.8107 15.7483C25.8155 15.6988 25.8199 15.6493 25.824 15.5999C25.8268 15.5656 25.8299 15.5314 25.8324 15.497C25.8382 15.4181 25.8432 15.3392 25.8474 15.2601C25.8489 15.2347 25.8497 15.2092 25.851 15.1836C25.8538 15.1201 25.8563 15.0566 25.8581 14.993C25.8589 14.9665 25.8597 14.94 25.8604 14.9135C25.8622 14.8273 25.8636 14.7412 25.8636 14.655C25.8636 14.58 25.8627 14.5051 25.8613 14.4301C25.8607 14.4029 25.8598 14.3757 25.8591 14.3485C25.8578 14.3015 25.8564 14.2545 25.8546 14.2074C25.8533 14.1739 25.8516 14.1405 25.8501 14.1071C25.8481 14.0666 25.8461 14.0262 25.8437 13.9858C25.8416 13.9495 25.8393 13.9133 25.8368 13.8771C25.8342 13.8398 25.8315 13.8026 25.8285 13.7654C25.8256 13.7276 25.8227 13.6898 25.8193 13.6521C25.8161 13.6157 25.8125 13.5794 25.8089 13.543C25.8053 13.5056 25.8018 13.4681 25.7978 13.4306C25.7933 13.3883 25.7881 13.3463 25.783 13.304C25.7774 13.2571 25.7717 13.2103 25.7656 13.1635C25.7588 13.1125 25.7521 13.0614 25.7447 13.0106C26.4674 13.2082 26.9999 13.8705 26.9999 14.6549C26.9998 15.4395 26.4673 16.1018 25.7446 16.2995Z"/>
</mask>
<path d="M25.5064 11.8229C24.6129 8.34521 22.1078 5.45427 18.7275 4.10332C18.1436 2.2799 16.4268 1.01871 14.5001 1.01871C12.5241 1.01871 10.8462 2.31692 10.2729 4.10498C8.23707 4.92038 6.49371 6.29594 5.21824 8.098C4.41247 9.23652 3.83155 10.4951 3.49139 11.823C2.02426 11.9326 0.863743 13.1605 0.863743 14.6551C0.863743 16.1505 2.02543 17.379 3.49373 17.4874C4.75546 22.3874 9.21158 26.0187 14.5001 26.0187C19.7884 26.0187 24.2445 22.3874 25.5062 17.4874C26.9745 17.379 28.1363 16.1505 28.1363 14.655C28.1363 13.1597 26.9746 11.9313 25.5064 11.8229ZM2.00019 14.655C2.00019 13.8709 2.53248 13.2089 3.25456 13.0109C3.20577 13.3491 3.17179 13.6905 3.15336 14.0346C3.15304 14.0394 3.15288 14.044 3.15261 14.0488C3.14931 14.1115 3.14638 14.1742 3.14414 14.237C3.14323 14.2608 3.14276 14.2846 3.14212 14.3084C3.14073 14.3535 3.13929 14.3985 3.13844 14.4436C3.13722 14.5141 3.13647 14.5845 3.13647 14.655C3.13647 14.741 3.1378 14.827 3.13983 14.9131C3.14041 14.94 3.14116 14.9669 3.14201 14.9937C3.14382 15.0563 3.14627 15.1189 3.14915 15.1815C3.15032 15.208 3.15138 15.2346 3.15272 15.2611C3.15687 15.3392 3.16188 15.4172 3.16758 15.4952C3.17029 15.5318 3.17349 15.5683 3.17647 15.6048C3.18036 15.6511 3.18441 15.6973 3.18883 15.7435C3.19272 15.7842 3.19671 15.825 3.20103 15.8655C3.20604 15.913 3.21174 15.9605 3.21733 16.0079C3.22473 16.07 3.23267 16.1319 3.24103 16.1937C3.24583 16.229 3.25025 16.2644 3.25536 16.2995C2.53285 16.1018 2.00019 15.4394 2.00019 14.655ZM14.5001 2.15515C15.6254 2.15515 16.6547 2.73309 17.2554 3.63772C17.2441 3.63761 17.2328 3.63756 17.2214 3.63756C17.2141 3.63756 17.207 3.63809 17.1996 3.63815C17.1968 3.63825 17.1939 3.6382 17.191 3.63836C15.4219 3.65482 13.9877 5.09845 13.9877 6.87133C13.9877 7.56123 14.2045 8.21716 14.5939 8.75835C14.5626 8.7592 14.5313 8.75968 14.5001 8.75968C12.6792 8.75968 11.1979 7.27834 11.1979 5.45752C11.1978 3.63655 12.6792 2.15515 14.5001 2.15515ZM24.7235 14.9242C24.7232 14.9381 24.7224 14.9518 24.722 14.9657C24.7196 15.0418 24.7169 15.118 24.7129 15.1941C24.7122 15.2077 24.7111 15.2212 24.7103 15.2348C24.706 15.3108 24.7012 15.3869 24.6952 15.4629C24.6941 15.4782 24.6924 15.4934 24.6911 15.5088C24.6851 15.5822 24.6784 15.6555 24.6708 15.7288C24.6687 15.7492 24.666 15.7695 24.6638 15.7898C24.6563 15.8569 24.6486 15.9239 24.6398 15.9909C24.6362 16.0189 24.632 16.0468 24.6281 16.0747C24.6201 16.1326 24.6119 16.1904 24.6028 16.2481C24.5968 16.2857 24.5905 16.323 24.5841 16.3604C24.5763 16.4071 24.5685 16.4538 24.5599 16.5003C24.5513 16.5477 24.5421 16.5948 24.5328 16.6418C24.5258 16.6771 24.5189 16.7124 24.5116 16.7476C23.5432 21.3866 19.4222 24.8823 14.4999 24.8823C9.57406 24.8823 5.45059 21.3817 4.48614 16.7376C4.4774 16.6955 4.46936 16.6532 4.46121 16.6109C4.45333 16.5705 4.44528 16.5301 4.43793 16.4896C4.42749 16.4322 4.41796 16.3745 4.40848 16.3168C4.40416 16.2904 4.39942 16.2639 4.39532 16.2374C4.38403 16.1644 4.37369 16.0914 4.36389 16.0181C4.36224 16.0057 4.36022 15.9933 4.35867 15.9809C4.34749 15.8947 4.33726 15.8082 4.32826 15.7217C4.32826 15.7213 4.32815 15.7208 4.32815 15.7205C4.29134 15.3668 4.27275 15.0109 4.27275 14.6552C4.27275 14.5749 4.27409 14.4946 4.276 14.4143C4.2767 14.3879 4.27749 14.3616 4.27835 14.3353C4.28 14.2813 4.28223 14.2273 4.28479 14.1733C4.28623 14.1418 4.28761 14.1104 4.28937 14.079C4.29209 14.0312 4.2955 13.9833 4.29885 13.9355C4.30477 13.853 4.31143 13.7706 4.31926 13.6884C4.32016 13.679 4.32091 13.6695 4.32181 13.6602C4.67103 10.1238 6.86119 6.98553 10.0619 5.43962C10.0619 5.44564 10.0615 5.45156 10.0615 5.45758C10.0615 5.86432 10.1175 6.25796 10.2205 6.63242C9.20061 7.17548 8.30504 7.89905 7.55435 8.78866C7.35194 9.02852 7.38235 9.387 7.62221 9.58931C7.72885 9.67933 7.85893 9.72322 7.98837 9.72322C8.14998 9.72322 8.31052 9.65461 8.42286 9.52145C9.057 8.76996 9.80918 8.15409 10.6633 7.68492C11.4331 9.00577 12.8641 9.89612 14.5001 9.89612C15.0017 9.89612 15.4946 9.81271 15.9649 9.64827C16.1697 9.57663 16.3159 9.39462 16.3415 9.1791C16.3672 8.96364 16.2679 8.75233 16.0856 8.63466C15.4836 8.24576 15.1241 7.58664 15.1241 6.87143C15.1241 5.7384 16.0274 4.813 17.1516 4.77587C20.9258 5.78564 23.7327 8.83734 24.5103 12.5567C24.5231 12.6183 24.5356 12.6799 24.5473 12.7417C24.5534 12.774 24.559 12.8065 24.5649 12.8388C24.5739 12.8894 24.5828 12.94 24.5911 12.9908C24.5962 13.0211 24.6009 13.0515 24.6056 13.082C24.6144 13.139 24.6228 13.1962 24.6306 13.2534C24.6339 13.2772 24.6373 13.301 24.6405 13.3248C24.6621 13.4909 24.6797 13.6577 24.6933 13.8247C24.6949 13.8438 24.6961 13.8631 24.6975 13.8823C24.7024 13.9466 24.7066 14.0109 24.7103 14.0753C24.7117 14.1002 24.713 14.1253 24.7142 14.1504C24.7173 14.2116 24.7196 14.2729 24.7215 14.3342C24.7223 14.3579 24.7232 14.3816 24.7238 14.4053C24.7259 14.4886 24.7271 14.5719 24.7271 14.6551C24.7271 14.7448 24.7259 14.8346 24.7235 14.9242ZM25.7446 16.2995C25.7509 16.2566 25.7565 16.2134 25.7623 16.1703C25.7683 16.1249 25.7742 16.0793 25.7798 16.0336C25.7868 15.9762 25.7934 15.9188 25.7996 15.8614C25.8035 15.8238 25.8072 15.7861 25.8107 15.7483C25.8155 15.6988 25.8199 15.6493 25.824 15.5999C25.8268 15.5656 25.8299 15.5314 25.8324 15.497C25.8382 15.4181 25.8432 15.3392 25.8474 15.2601C25.8489 15.2347 25.8497 15.2092 25.851 15.1836C25.8538 15.1201 25.8563 15.0566 25.8581 14.993C25.8589 14.9665 25.8597 14.94 25.8604 14.9135C25.8622 14.8273 25.8636 14.7412 25.8636 14.655C25.8636 14.58 25.8627 14.5051 25.8613 14.4301C25.8607 14.4029 25.8598 14.3757 25.8591 14.3485C25.8578 14.3015 25.8564 14.2545 25.8546 14.2074C25.8533 14.1739 25.8516 14.1405 25.8501 14.1071C25.8481 14.0666 25.8461 14.0262 25.8437 13.9858C25.8416 13.9495 25.8393 13.9133 25.8368 13.8771C25.8342 13.8398 25.8315 13.8026 25.8285 13.7654C25.8256 13.7276 25.8227 13.6898 25.8193 13.6521C25.8161 13.6157 25.8125 13.5794 25.8089 13.543C25.8053 13.5056 25.8018 13.4681 25.7978 13.4306C25.7933 13.3883 25.7881 13.3463 25.783 13.304C25.7774 13.2571 25.7717 13.2103 25.7656 13.1635C25.7588 13.1125 25.7521 13.0614 25.7447 13.0106C26.4674 13.2082 26.9999 13.8705 26.9999 14.6549C26.9998 15.4395 26.4673 16.1018 25.7446 16.2995Z" fill="white"/>
<path d="M25.5064 11.8229C24.6129 8.34521 22.1078 5.45427 18.7275 4.10332C18.1436 2.2799 16.4268 1.01871 14.5001 1.01871C12.5241 1.01871 10.8462 2.31692 10.2729 4.10498C8.23707 4.92038 6.49371 6.29594 5.21824 8.098C4.41247 9.23652 3.83155 10.4951 3.49139 11.823C2.02426 11.9326 0.863743 13.1605 0.863743 14.6551C0.863743 16.1505 2.02543 17.379 3.49373 17.4874C4.75546 22.3874 9.21158 26.0187 14.5001 26.0187C19.7884 26.0187 24.2445 22.3874 25.5062 17.4874C26.9745 17.379 28.1363 16.1505 28.1363 14.655C28.1363 13.1597 26.9746 11.9313 25.5064 11.8229ZM2.00019 14.655C2.00019 13.8709 2.53248 13.2089 3.25456 13.0109C3.20577 13.3491 3.17179 13.6905 3.15336 14.0346C3.15304 14.0394 3.15288 14.044 3.15261 14.0488C3.14931 14.1115 3.14638 14.1742 3.14414 14.237C3.14323 14.2608 3.14276 14.2846 3.14212 14.3084C3.14073 14.3535 3.13929 14.3985 3.13844 14.4436C3.13722 14.5141 3.13647 14.5845 3.13647 14.655C3.13647 14.741 3.1378 14.827 3.13983 14.9131C3.14041 14.94 3.14116 14.9669 3.14201 14.9937C3.14382 15.0563 3.14627 15.1189 3.14915 15.1815C3.15032 15.208 3.15138 15.2346 3.15272 15.2611C3.15687 15.3392 3.16188 15.4172 3.16758 15.4952C3.17029 15.5318 3.17349 15.5683 3.17647 15.6048C3.18036 15.6511 3.18441 15.6973 3.18883 15.7435C3.19272 15.7842 3.19671 15.825 3.20103 15.8655C3.20604 15.913 3.21174 15.9605 3.21733 16.0079C3.22473 16.07 3.23267 16.1319 3.24103 16.1937C3.24583 16.229 3.25025 16.2644 3.25536 16.2995C2.53285 16.1018 2.00019 15.4394 2.00019 14.655ZM14.5001 2.15515C15.6254 2.15515 16.6547 2.73309 17.2554 3.63772C17.2441 3.63761 17.2328 3.63756 17.2214 3.63756C17.2141 3.63756 17.207 3.63809 17.1996 3.63815C17.1968 3.63825 17.1939 3.6382 17.191 3.63836C15.4219 3.65482 13.9877 5.09845 13.9877 6.87133C13.9877 7.56123 14.2045 8.21716 14.5939 8.75835C14.5626 8.7592 14.5313 8.75968 14.5001 8.75968C12.6792 8.75968 11.1979 7.27834 11.1979 5.45752C11.1978 3.63655 12.6792 2.15515 14.5001 2.15515ZM24.7235 14.9242C24.7232 14.9381 24.7224 14.9518 24.722 14.9657C24.7196 15.0418 24.7169 15.118 24.7129 15.1941C24.7122 15.2077 24.7111 15.2212 24.7103 15.2348C24.706 15.3108 24.7012 15.3869 24.6952 15.4629C24.6941 15.4782 24.6924 15.4934 24.6911 15.5088C24.6851 15.5822 24.6784 15.6555 24.6708 15.7288C24.6687 15.7492 24.666 15.7695 24.6638 15.7898C24.6563 15.8569 24.6486 15.9239 24.6398 15.9909C24.6362 16.0189 24.632 16.0468 24.6281 16.0747C24.6201 16.1326 24.6119 16.1904 24.6028 16.2481C24.5968 16.2857 24.5905 16.323 24.5841 16.3604C24.5763 16.4071 24.5685 16.4538 24.5599 16.5003C24.5513 16.5477 24.5421 16.5948 24.5328 16.6418C24.5258 16.6771 24.5189 16.7124 24.5116 16.7476C23.5432 21.3866 19.4222 24.8823 14.4999 24.8823C9.57406 24.8823 5.45059 21.3817 4.48614 16.7376C4.4774 16.6955 4.46936 16.6532 4.46121 16.6109C4.45333 16.5705 4.44528 16.5301 4.43793 16.4896C4.42749 16.4322 4.41796 16.3745 4.40848 16.3168C4.40416 16.2904 4.39942 16.2639 4.39532 16.2374C4.38403 16.1644 4.37369 16.0914 4.36389 16.0181C4.36224 16.0057 4.36022 15.9933 4.35867 15.9809C4.34749 15.8947 4.33726 15.8082 4.32826 15.7217C4.32826 15.7213 4.32815 15.7208 4.32815 15.7205C4.29134 15.3668 4.27275 15.0109 4.27275 14.6552C4.27275 14.5749 4.27409 14.4946 4.276 14.4143C4.2767 14.3879 4.27749 14.3616 4.27835 14.3353C4.28 14.2813 4.28223 14.2273 4.28479 14.1733C4.28623 14.1418 4.28761 14.1104 4.28937 14.079C4.29209 14.0312 4.2955 13.9833 4.29885 13.9355C4.30477 13.853 4.31143 13.7706 4.31926 13.6884C4.32016 13.679 4.32091 13.6695 4.32181 13.6602C4.67103 10.1238 6.86119 6.98553 10.0619 5.43962C10.0619 5.44564 10.0615 5.45156 10.0615 5.45758C10.0615 5.86432 10.1175 6.25796 10.2205 6.63242C9.20061 7.17548 8.30504 7.89905 7.55435 8.78866C7.35194 9.02852 7.38235 9.387 7.62221 9.58931C7.72885 9.67933 7.85893 9.72322 7.98837 9.72322C8.14998 9.72322 8.31052 9.65461 8.42286 9.52145C9.057 8.76996 9.80918 8.15409 10.6633 7.68492C11.4331 9.00577 12.8641 9.89612 14.5001 9.89612C15.0017 9.89612 15.4946 9.81271 15.9649 9.64827C16.1697 9.57663 16.3159 9.39462 16.3415 9.1791C16.3672 8.96364 16.2679 8.75233 16.0856 8.63466C15.4836 8.24576 15.1241 7.58664 15.1241 6.87143C15.1241 5.7384 16.0274 4.813 17.1516 4.77587C20.9258 5.78564 23.7327 8.83734 24.5103 12.5567C24.5231 12.6183 24.5356 12.6799 24.5473 12.7417C24.5534 12.774 24.559 12.8065 24.5649 12.8388C24.5739 12.8894 24.5828 12.94 24.5911 12.9908C24.5962 13.0211 24.6009 13.0515 24.6056 13.082C24.6144 13.139 24.6228 13.1962 24.6306 13.2534C24.6339 13.2772 24.6373 13.301 24.6405 13.3248C24.6621 13.4909 24.6797 13.6577 24.6933 13.8247C24.6949 13.8438 24.6961 13.8631 24.6975 13.8823C24.7024 13.9466 24.7066 14.0109 24.7103 14.0753C24.7117 14.1002 24.713 14.1253 24.7142 14.1504C24.7173 14.2116 24.7196 14.2729 24.7215 14.3342C24.7223 14.3579 24.7232 14.3816 24.7238 14.4053C24.7259 14.4886 24.7271 14.5719 24.7271 14.6551C24.7271 14.7448 24.7259 14.8346 24.7235 14.9242ZM25.7446 16.2995C25.7509 16.2566 25.7565 16.2134 25.7623 16.1703C25.7683 16.1249 25.7742 16.0793 25.7798 16.0336C25.7868 15.9762 25.7934 15.9188 25.7996 15.8614C25.8035 15.8238 25.8072 15.7861 25.8107 15.7483C25.8155 15.6988 25.8199 15.6493 25.824 15.5999C25.8268 15.5656 25.8299 15.5314 25.8324 15.497C25.8382 15.4181 25.8432 15.3392 25.8474 15.2601C25.8489 15.2347 25.8497 15.2092 25.851 15.1836C25.8538 15.1201 25.8563 15.0566 25.8581 14.993C25.8589 14.9665 25.8597 14.94 25.8604 14.9135C25.8622 14.8273 25.8636 14.7412 25.8636 14.655C25.8636 14.58 25.8627 14.5051 25.8613 14.4301C25.8607 14.4029 25.8598 14.3757 25.8591 14.3485C25.8578 14.3015 25.8564 14.2545 25.8546 14.2074C25.8533 14.1739 25.8516 14.1405 25.8501 14.1071C25.8481 14.0666 25.8461 14.0262 25.8437 13.9858C25.8416 13.9495 25.8393 13.9133 25.8368 13.8771C25.8342 13.8398 25.8315 13.8026 25.8285 13.7654C25.8256 13.7276 25.8227 13.6898 25.8193 13.6521C25.8161 13.6157 25.8125 13.5794 25.8089 13.543C25.8053 13.5056 25.8018 13.4681 25.7978 13.4306C25.7933 13.3883 25.7881 13.3463 25.783 13.304C25.7774 13.2571 25.7717 13.2103 25.7656 13.1635C25.7588 13.1125 25.7521 13.0614 25.7447 13.0106C26.4674 13.2082 26.9999 13.8705 26.9999 14.6549C26.9998 15.4395 26.4673 16.1018 25.7446 16.2995Z" stroke="white" stroke-width="0.4" mask="url(#path-1-outside-1)"/>
<path d="M8.04009 15.2997L8.04009 15.2997C8.3118 14.286 9.23437 13.5781 10.2837 13.5781C11.3331 13.5781 12.2556 14.286 12.5272 15.2997C12.6156 15.6295 12.42 15.9685 12.09 16.0568M8.04009 15.2997L9.23435 15.6198L9.18605 15.6068L9.23435 15.6198M8.04009 15.2997C7.95171 15.6295 8.14742 15.9685 8.47718 16.0568L8.4772 16.0569M8.04009 15.2997L8.4772 16.0569M12.09 16.0568L12.0771 16.0086L12.09 16.0568C12.09 16.0568 12.09 16.0568 12.09 16.0568ZM12.09 16.0568C12.0365 16.0712 11.9826 16.078 11.9297 16.078C11.6568 16.078 11.4069 15.896 11.3329 15.6198C11.2058 15.1456 10.7743 14.8145 10.2836 14.8145C9.79298 14.8145 9.36145 15.1456 9.23435 15.6198M9.23435 15.6198C9.14596 15.9495 8.80704 16.1451 8.4772 16.0569M9.23435 15.6198L8.4772 16.0569" fill="white" stroke="white" stroke-width="0.1"/>
<path d="M16.473 15.2997L16.473 15.2997C16.7446 14.2861 17.6672 13.5781 18.7167 13.5781C19.766 13.5781 20.6885 14.2861 20.9601 15.2997C21.0485 15.6294 20.8528 15.9685 20.523 16.0568L16.473 15.2997ZM16.473 15.2997C16.3847 15.6295 16.5804 15.9685 16.9102 16.0568M16.473 15.2997L16.9102 16.0568M16.9102 16.0568C17.2399 16.1453 17.579 15.9495 17.6673 15.6197M16.9102 16.0568L17.6673 15.6197M17.6673 15.6197C17.7943 15.1456 18.2259 14.8145 18.7166 14.8145M17.6673 15.6197C17.6673 15.6197 17.6673 15.6197 17.6673 15.6197L18.7166 14.8145M18.7166 14.8145C19.2073 14.8145 19.6388 15.1456 19.7659 15.6198M18.7166 14.8145L19.7659 15.6198M19.7659 15.6198C19.8399 15.896 20.0896 16.078 20.3626 16.078M19.7659 15.6198L20.3626 16.078M20.3626 16.078C20.4156 16.078 20.4695 16.0712 20.523 16.0568L20.3626 16.078Z" fill="white" stroke="white" stroke-width="0.1"/>
<path d="M16.3066 19.251L16.3066 19.2509L15.5978 19.701L15.5495 19.6881C15.5495 19.6881 15.5495 19.6881 15.5495 19.6881C15.4224 20.1622 14.9909 20.4934 14.5002 20.4934C14.0095 20.4934 13.578 20.1622 13.451 19.6881L13.451 19.6881C13.3626 19.3583 13.0236 19.1626 12.6938 19.251C12.364 19.3393 12.1683 19.6783 12.2567 20.0081C12.5284 21.0219 13.4508 21.7298 14.5003 21.7298C15.5496 21.7298 16.4722 21.0218 16.7438 20.0081L16.7438 20.0081C16.8321 19.6784 16.6364 19.3393 16.3066 19.251ZM16.294 19.2983L16.294 19.2983L16.294 19.2983Z" fill="white" stroke="white" stroke-width="0.1"/>
</svg>
