<svg width="414" height="256" viewBox="0 0 414 256" fill="none" xmlns="http://www.w3.org/2000/svg">
<path fill-rule="evenodd" clip-rule="evenodd" d="M-1.67867e-05 98.1695C-29.1127 110.713 -49.4936 139.665 -49.4936 173.378C-49.4936 218.585 -12.8462 255.232 32.3607 255.232C59.8342 255.232 84.1463 241.697 98.9928 220.932C103.995 222.352 109.275 223.112 114.733 223.112C134.71 223.112 152.308 212.926 162.616 197.463C170.183 205.593 180.978 210.679 192.961 210.679C209.16 210.679 223.189 201.385 230.005 187.839C241.341 194.455 254.527 198.245 268.598 198.245C294.268 198.245 316.992 185.63 330.908 166.262C335.481 167.523 340.298 168.197 345.272 168.197C353.727 168.197 361.727 166.25 368.849 162.779C376.697 176.537 391.503 185.812 408.476 185.812C433.654 185.812 454.066 165.4 454.066 140.222C454.066 116.913 436.573 97.69 414 94.9635L414 -20L-6.456e-06 -20L-1.67867e-05 98.1695ZM165.547 138.15L165.272 138.15C165.302 138.204 165.332 138.259 165.361 138.314C165.423 138.259 165.485 138.204 165.547 138.15Z" fill="#1F265E"/>
<circle cx="74.0587" cy="39.63" r="25.37" fill="#D3D4DE"/>
<circle cx="65.2968" cy="27.9256" r="4.65732" fill="#C5C6D0"/>
<circle cx="84.527" cy="39.4158" r="6.75236" fill="#F1F1F3"/>
<path fill-rule="evenodd" clip-rule="evenodd" d="M92.8885 56.6327C89.8884 59.953 86.0225 62.476 81.6468 63.8457C81.2681 63.0023 81.0575 62.0672 81.0575 61.0828C81.0575 57.3536 84.0806 54.3304 87.8099 54.3304C89.8344 54.3304 91.6509 55.2214 92.8885 56.6327Z" fill="#C5C6D0"/>
<circle cx="68.3156" cy="55.6243" r="3.01873" fill="#C5C6D0"/>
<circle cx="91.37" cy="27.37" r="25.37" fill="#1F265E"/>
<path d="M25.4736 73.9293C25.4736 73.9293 26.8455 81.0632 32.9943 79.4477C32.9943 79.4477 27.836 83.3988 29.8169 88.07C29.8169 88.07 27.4652 82.7845 22.1744 83.0441C22.1744 83.0441 26.7237 81.5558 25.4736 73.9293Z" fill="#FCFCFC"/>
<path d="M363.741 21.1977C363.741 21.1977 365.113 28.3316 371.261 26.7161C371.261 26.7161 366.103 30.6672 368.084 35.3384C368.084 35.3384 365.732 30.0528 360.441 30.3125C360.441 30.3125 364.991 28.8241 363.741 21.1977Z" fill="#6D75B0"/>
<path d="M25.696 134.167C25.696 134.167 26.6356 139.053 30.847 137.946C30.847 137.946 27.314 140.653 28.6707 143.852C28.6707 143.852 27.06 140.232 23.4362 140.41C23.4362 140.41 26.5522 139.39 25.696 134.167Z" fill="#6D75B0"/>
<path d="M386.084 72.1838C386.084 72.1838 381.875 74.335 384 77.8835C384 77.8835 380.596 75.3774 378.037 77.4624C378.037 77.4624 380.912 75.0344 379.79 71.7759C379.79 71.7759 381.546 74.3482 386.084 72.1838Z" fill="white"/>
<path d="M39.0231 124.148C39.0231 124.148 39.9627 129.034 44.1742 127.928C44.1742 127.928 40.6411 130.634 41.9979 133.833C41.9979 133.833 40.3872 130.213 36.7634 130.391C36.7634 130.391 39.8793 129.371 39.0231 124.148Z" fill="#6D75B0"/>
<path d="M405.955 103.832C405.955 103.832 401.747 105.983 403.872 109.531C403.872 109.531 400.468 107.025 397.909 109.11C397.909 109.11 400.784 106.682 399.662 103.424C399.662 103.424 401.417 105.996 405.955 103.832Z" fill="#6D75B0"/>
</svg>
